<?xml version="1.0" standalone="no"?>
<!DOCTYPE svg PUBLIC "-//W3C//DTD SVG 20010904//EN"
 "http://www.w3.org/TR/2001/REC-SVG-20010904/DTD/svg10.dtd">
<svg version="1.0" xmlns="http://www.w3.org/2000/svg"
 width="1200.000000pt" height="1200.000000pt" viewBox="0 0 1200.000000 1200.000000"
 preserveAspectRatio="xMidYMid meet">
<metadata>
Created by potrace 1.15, written by Peter Selinger 2001-2017
</metadata>
<g transform="translate(0.000000,1200.000000) scale(0.100000,-0.100000)"
fill="#000000" stroke="none">
<path d="M5625 11993 c-239 -19 -325 -28 -475 -49 -1575 -223 -2991 -1060
-3955 -2339 -218 -290 -395 -577 -568 -925 -346 -692 -550 -1421 -612 -2193
-17 -216 -20 -712 -5 -917 76 -1038 410 -2022 975 -2875 711 -1074 1716 -1872
2930 -2327 185 -69 261 -84 354 -68 84 15 130 39 180 96 75 86 75 79 66 734
-4 316 -9 577 -10 579 -2 2 -68 -6 -147 -18 -470 -69 -845 -53 -1151 49 -188
63 -344 159 -469 288 -113 117 -174 216 -247 398 -58 147 -221 425 -340 579
-90 117 -174 196 -290 272 -287 189 -337 306 -154 359 78 23 257 20 354 -5
280 -72 519 -275 762 -647 273 -417 630 -611 1089 -591 194 8 358 44 551 119
58 23 78 36 81 52 64 344 153 546 319 723 33 35 58 65 56 67 -2 2 -76 13 -164
25 -805 110 -1385 352 -1800 753 -402 386 -632 894 -725 1598 -32 235 -40 700
-15 890 61 487 235 878 565 1270 l29 35 -29 91 c-113 351 -118 767 -15 1172
27 107 91 300 106 318 24 29 217 23 387 -12 308 -63 782 -284 1179 -548 l73
-49 167 41 c284 69 561 115 868 144 183 17 756 17 940 0 313 -29 642 -85 909
-153 l125 -33 88 59 c415 277 843 475 1183 546 132 27 341 33 364 9 18 -19 79
-194 111 -322 103 -405 98 -821 -15 -1172 l-29 -91 29 -35 c334 -393 518 -815
571 -1307 25 -236 2 -743 -46 -1028 -114 -670 -396 -1190 -840 -1548 -413
-333 -992 -546 -1737 -637 -54 -7 -98 -15 -98 -19 0 -4 23 -29 51 -56 151
-148 265 -390 321 -680 21 -106 22 -144 27 -1115 7 -1117 1 -1036 75 -1118 70
-77 210 -110 334 -78 35 9 125 39 200 67 1112 417 2082 1163 2777 2134 645
901 1020 1943 1105 3065 15 203 12 699 -5 917 -78 964 -378 1870 -895 2703
-348 560 -833 1101 -1365 1522 -337 267 -647 463 -1045 662 -712 355 -1454
558 -2255 616 -126 9 -700 11 -800 3z"/>
</g>
</svg>
